PathFileType	4	(X/Y/Z)	7_coords_data.trc
DataRate	CameraRate	NumFrames	NumMarkers	Units	OrigDataRate	OrigDataStartFrame	OrigNumFrames
30.0	30.0	6	21	m	30.0	1	49
Frame#	Time	THUMB_TIP	THUMB_IP	THUMB_MCP	THUMB_CMC	INDEX_TIP	INDEX_DIP	INDEX_PIP	INDEX_MCP	MIDDLE_TIP	MIDDLE_DIP	MIDDLE_PIP	MIDDLE_MCP	RING_TIP	RING_DIP	RING_PIP	RING_MCP	PINKY_TIP	PINKY_DIP	PINKY_PIP	PINKY_MCP	WRIST
X1	Y1	Z1	X2	Y2	Z2	X3	Y3	Z3	X4	Y4	Z4	X5	Y5	Z5	X6	Y6	Z6	X7	Y7	Z7	X8	Y8	Z8	X9	Y9	Z9	X10	Y10	Z10	X11	Y11	Z11	X12	Y12	Z12	X13	Y13	Z13	X14	Y14	Z14	X15	Y15	Z15	X16	Y16	Z16	X17	Y17	Z17	X18	Y18	Z18	X19	Y19	Z19	X20	Y20	Z20	X21	Y21	Z21
0	0.0	-0.035375701904296876	-0.0573030014038086	0.9854879760742188	-0.03444979858398438	-0.04156399917602539	1.0070599975585937	-0.04392800140380859	-0.02980299949645996	1.0419200439453125	-0.04344729995727539	-0.000556109011173248	1.060449951171875	-0.03289229965209961	-0.011182900428771972	1.0229600219726562	-0.021415199279785156	-0.00901930046081543	1.0096400146484374	-0.02609980010986328	-0.007873010158538819	0.9869660034179687	-0.06177610015869141	-0.009125	1.0035	-0.03166150093078613	0.0018537100553512572	1.02843994140625	-0.016247900009155273	0.006777460098266601	1.0180499877929687	-0.01865290069580078	0.014000800132751465	0.9936580200195313	-0.05836869812011719	0.015371299743652344	0.9993790283203124	-0.036820999145507814	0.014767000198364258	1.0409300537109376	-0.021625999450683595	0.021884199142456054	1.02968994140625	-0.018490400314331055	0.03177610015869141	1.0087899780273437	-0.05795769882202149	0.03558649826049805	1.0100700073242188	0.0	0.0	0.0	-0.02330649948120117	0.035866600036621094	1.0393499755859374	-0.021667800903320312	0.04458869934082031	1.0238400268554688	-0.050143798828125	0.051033798217773436	1.0223499755859375	-0.05942369842529297	0.01969960021972656	1.072739990234375
1	0.03333333333333333	-0.033306098937988284	-0.05631539916992188	0.9852670288085937	-0.035339500427246096	-0.04077780151367188	1.0078800048828125	-0.04126259994506836	-0.031196300506591796	1.0359599609375	-0.04187360000610352	-0.0036314499378204343	1.058280029296875	-0.03165539932250976	-0.011673600196838378	1.0236799926757814	-0.019788299560546875	-0.00963994026184082	1.0080700073242188	-0.025646499633789063	-0.007142630100250244	0.98614501953125	-0.0609379997253418	-0.008091699600219727	1.0012100219726563	-0.029857500076293945	0.0012413300275802611	1.0314100341796875	-0.017517900466918944	0.006651289939880371	1.019	-0.019049699783325196	0.01430500030517578	0.9930700073242188	-0.059790000915527344	0.016088199615478516	0.9995869750976563	-0.03428879928588867	0.015418100357055663	1.0413599853515625	-0.020792499542236328	0.021869699478149415	1.0300699462890626	-0.0179689998626709	0.03221390151977539	1.007780029296875	-0.05699309921264648	0.03539759826660156	1.0083800048828124	-0.03538199996948242	0.029907499313354492	1.04752001953125	-0.022216600418090822	0.035335201263427735	1.039050048828125	-0.02128230094909668	0.04481330108642578	1.023739990234375	-0.05088679885864258	0.050648799896240236	1.02122998046875	-0.05950579833984375	0.020806699752807616	1.074739990234375
2	0.06666666666666667	-0.03216650009155273	-0.056270999908447264	0.9851640014648437	-0.03472380065917969	-0.0409833984375	1.0078300170898438	-0.040990398406982424	-0.03151230049133301	1.0358399658203126	-0.04184460067749023	-0.003926569938659668	1.0580999755859375	-0.03172450065612793	-0.0119399995803833	1.0233800048828126	-0.01973979949951172	-0.009952369689941407	1.0079600219726563	-0.025574899673461913	-0.0074857501983642575	0.9858770141601563	-0.0608672981262207	-0.008395689964294434	1.0009299926757813	-0.02990690040588379	0.000983314990997314	1.0313800048828126	-0.017545700073242188	0.006336649894714355	1.0189000244140625	-0.01897999954223633	0.013975399971008301	0.9928070068359375	-0.059741001129150394	0.015710000038146973	0.9992890014648438	-0.03427299880981445	0.015131400108337403	1.0411800537109375	-0.02077120018005371	0.021579200744628907	1.0299200439453124	-0.017949499130249024	0.031929800033569336	1.0075	-0.056980998992919925	0.03502989959716797	1.0080599975585938	-0.03561330032348633	0.02967300033569336	1.0473299560546876	-0.02221750068664551	0.03506930160522461	1.0389000244140625	-0.021210500717163086	0.04455830001831055	1.0234199829101562	-0.0509192008972168	0.05034189987182617	1.0209199829101563	-0.059511299133300784	0.020572500228881838	1.074550048828125
3	0.1	-0.03191900062561035	-0.05672529983520508	0.9852329711914063	-0.03461909866333008	-0.041506900787353515	1.0078800048828125	-0.04101070022583008	-0.03202970123291016	1.03581005859375	-0.04185380172729492	-0.004309000015258789	1.058010009765625	-0.03156180000305176	-0.012336700439453126	1.0233200073242188	-0.019671899795532227	-0.010302900314331054	1.00777001953125	-0.025537099838256836	-0.007817560195922852	0.9857440185546875	-0.0608582992553711	-0.008803609848022462	1.0008499755859375	-0.02980620002746582	0.000619736015796661	1.0311400146484375	-0.017486700057983397	0.006003950119018555	1.0186699829101562	-0.01890369987487793	0.013598999977111816	0.99268701171875	-0.05971039962768555	0.015361900329589845	0.9991199951171875	-0.03421120071411133	0.01479740047454834	1.041030029296875	-0.02069099998474121	0.02125480079650879	1.02968994140625	-0.017937599182128908	0.03158650016784668	1.0073300170898438	-0.05687649917602539	0.03469829940795898	1.0078400268554688	-0.0354453010559082	0.029419500350952147	1.0470400390625	-0.022188400268554686	0.03473429870605469	1.03868994140625	-0.021213300704956056	0.04418360137939453	1.0233699951171875	-0.0508499984741211	0.04999499893188476	1.02072998046875	-0.05955550003051758	0.020278799057006837	1.0745999755859375
4	0.13333333333333333	-0.031757299423217776	-0.057340999603271485	0.9853250122070313	-0.034669898986816404	-0.042083900451660154	1.0078599853515624	-0.04117480087280274	-0.032511398315429686	1.035739990234375	-0.042200801849365234	-0.004724170207977295	1.0578499755859374	-0.031547599792480466	-0.012798800468444824	1.023010009765625	-0.019799100875854493	-0.010775400161743163	1.007469970703125	-0.025768400192260742	-0.008339380264282227	0.9855590209960937	-0.06111199951171875	-0.009261670112609864	1.000719970703125	-0.029968299865722657	0.00018487900495529102	1.0309300537109376	-0.017580699920654298	0.0055527701377868655	1.0184600219726563	-0.019153099060058593	0.013135000228881836	0.99239501953125	-0.05991299819946289	0.014919300079345704	0.9989110107421875	-0.034303298950195314	0.014413200378417968	1.0405799560546876	-0.020891700744628906	0.02076449966430664	1.029469970703125	-0.01808180046081543	0.031035900115966797	1.0070800170898437	-0.05704359817504883	0.03423490142822266	1.0075700073242186	-0.03581000137329102	0.029120000839233398	1.046760009765625	-0.022351800918579103	0.03428689956665039	1.0384200439453124	-0.021305599212646485	0.04366230010986328	1.0230499877929689	-0.05103850173950195	0.04953369903564453	1.0203499755859375	-0.059830001831054684	0.019898899078369142	1.0743699951171874
5	0.16666666666666666	-0.03139509963989258	-0.05766849899291992	0.985333984375	-0.03462020111083984	-0.04246590042114258	1.008030029296875	-0.04137699890136719	-0.032910598754882815	1.035760009765625	-0.04254090118408203	-0.005106780052185058	1.05777001953125	-0.03193090057373047	-0.013139399528503418	1.0230900268554688	-0.020126300811767577	-0.0112253999710083	1.0075900268554687	-0.02577440071105957	-0.008852199554443359	0.9856820068359375	-0.06121490097045899	-0.009686079978942871	1.0005399780273438	-0.03022640037536621	-0.00019251799583435	1.03093994140625	-0.017850400924682618	0.005125539779663086	1.018510009765625	-0.01918169975280762	0.01254539966583252	0.99247900390625	-0.06003409957885742	0.014436300277709962	0.9986339721679688	-0.03470650100708008	0.014020500183105468	1.040780029296875	-0.02113479995727539	0.020361499786376955	1.0293900146484376	-0.018246299743652345	0.03053730010986328	1.0070599975585937	-0.05718619918823242	0.033839698791503905	1.0073699951171875	-0.03584239959716797	0.028569900512695312	1.0466199951171875	-0.022587200164794922	0.03386660003662109	1.038300048828125	-0.021501100540161133	0.04321120071411133	1.022969970703125	-0.05114559936523438	0.04915679931640625	1.0202000122070312	-0.06017449951171875	0.019519500732421875	1.0741700439453126
